<svg xmlns="http://www.w3.org/2000/svg" width="118.666" height="142.64" viewBox="0 0 118.666 142.64">
  <path id="Path_2867" data-name="Path 2867" d="M1.319,71.865c1.088-.063,1.552-.05,1.679.053.433.351,7.615-.093,11.684-.72a56.062,56.062,0,0,0,5.81-1.445.168.168,0,0,1,.182-.057,21.172,21.172,0,0,0,2.21-.745c1.15-.427,2.2-.812,2.312-.852.488-.164,4.079-1.869,5.12-2.43C33,64.225,37.63,61.323,40.462,59.314c.261-.185.665-.464.9-.625.54-.362,3.655-2.9,4.143-3.373.2-.191.531-.5.737-.684l1.372-1.215.993-.882-.491.647c-.273.359-.564.766-.654.912s-.515.764-.957,1.384-1.1,1.583-1.482,2.163-.829,1.251-1.005,1.5c-.374.535-1.245,1.855-1.464,2.214-.081.134-.54.876-1.011,1.637-1.46,2.354-1.623,2.636-2.876,4.945-.478.88-1.423,2.811-1.86,3.8a5.859,5.859,0,0,1-1.655,1.953c-.413.353-.883.757-1.042.9-.708.618-3.786,2.975-4.725,3.619-.326.225-.743.532-.931.686s-.868.7-1.5,1.209-1.424,1.159-1.741,1.436-.823.727-1.12.99-.746.684-.99.922-.552.532-.683.645A64.7,64.7,0,0,0,15,93.381c-.246.411-.6.989-.785,1.28s-.476.788-.642,1.1-.39.716-.49.891c-.375.657-.555.986-.7,1.266-.077.151-.185.357-.237.448a13.455,13.455,0,0,0-.727,1.471c-.087.222-.317.72-.5,1.1a17.363,17.363,0,0,0-1.275,3.343,3.861,3.861,0,0,1-.282.823.918.918,0,0,0-.124.427,2.3,2.3,0,0,1-.133.586c-.062.161-.234.772-.383,1.367-.386,1.531-.847,3.266-.9,3.385-.015.03-.121.452-.232.925-.476,2.008-.98,4.047-1.005,4.08s-.11.353-.205.732a82.144,82.144,0,0,1-3.036,8.641c-.389.844-.4,1.311-.033,1.352a7.314,7.314,0,0,0,2.068-1.079c.871-.531,1.451-.913,2.834-1.87.262-.182.885-.61,1.385-.953.788-.541,2.008-1.456,5.036-3.779.357-.274.764-.6.892-.71s.309-.259.4-.321.362-.309.612-.549a4.969,4.969,0,0,1,.516-.46c.131-.047,2.831-2.421,3.358-2.954a5.529,5.529,0,0,1,.6-.553,46.363,46.363,0,0,0,4.041-4.6,33.783,33.783,0,0,0,3.592-5.022c.178-.294.454-.784.62-1.091s.4-.731.52-.944c.33-.577,1.558-3.328,1.858-4.168.148-.414.317-.846.381-.972a9.46,9.46,0,0,0,.472-1.387c.062-.211.2-.633.3-.945a23.179,23.179,0,0,0,.648-2.28c.1-.44.333-1.346.5-2a133.117,133.117,0,0,0,2.888-16.182,8.251,8.251,0,0,1,.935-2.721c.048-.095.262-.535.479-.984a82.547,82.547,0,0,1,5.309-9.15c.434-.7,1-1.578,1.254-1.941s.687-.992.959-1.384.672-.978.883-1.29c.818-1.212,1.326-1.94,2.03-2.915.4-.558,1-1.4,1.341-1.879.567-.806.61-.847.607-.553a.873.873,0,0,1-.113.451,1.982,1.982,0,0,0-.211.553c-.056.228-.217.8-.353,1.254A41.443,41.443,0,0,0,48.568,59.5a5.526,5.526,0,0,1-.172,1.072.945.945,0,0,0-.045.443,8.889,8.889,0,0,1-.06,1.141c-.048.434-.075,1.54-.06,2.481.032,2.1.032,2.22.008,2.886-.024.687.042,5.384.089,6.213a62.294,62.294,0,0,0,.772,6.35c.071.289.167.763.211,1.029s.143.737.216,1.026a6.276,6.276,0,0,1,.133.625,30.171,30.171,0,0,0,1.219,3.676c.164.326.421.826.582,1.139s.475.883.7,1.266.5.867.609,1.057a.868.868,0,0,0,.537.458c.4.131.518-.056,1.174-1.889A47.913,47.913,0,0,0,57.241,74.9a52.69,52.69,0,0,0-.357-6.3c-.05-.359-.149-1.1-.223-1.667s-.185-1.227-.25-1.482a8.579,8.579,0,0,1-.173-.992c-.193-1.78-2.819-11.637-3.176-11.927-.036-.029-.3-.668-.589-1.421a11.064,11.064,0,0,0-.689-1.561c-.19-.225.118-.683,3.153-4.707,3.408-4.514,12.634-15.787,12.95-15.82a33.151,33.151,0,0,1-.416,5.836,47.8,47.8,0,0,0-.164,5.963c.023,1.283.035,2.517.029,2.743s-.014,1.665-.017,3.186-.012,2.965-.021,3.191c-.027.665-.056,6.761-.032,6.868.012.057.033.936.045,1.967A47.342,47.342,0,0,0,67.9,66a18.776,18.776,0,0,0,1.739,4.994c.39.723.754,1.417.808,1.545a4.086,4.086,0,0,0,1.323,1.512c.356.065.742-.27.983-.852A45.511,45.511,0,0,0,74.394,68.1c.084-.466.206-1.15.274-1.539s.137-.88.152-1.1a1.555,1.555,0,0,1,.089-.476,72.413,72.413,0,0,0,.555-8.59,54.909,54.909,0,0,0-.725-9.319c-.121-.606-.24-1.259-.265-1.444-.11-.8-1.326-5.58-1.751-6.884-.038-.118-.24-.758-.445-1.411s-.481-1.466-.609-1.792c-.862-2.214-1.55-3.878-2.369-5.741l-.7-1.587,1.04-1.164c.57-.638,1.164-1.281,1.311-1.424s.648-.672,1.114-1.18.965-1.035,1.114-1.18.561-.567.912-.939l1.167-1.236c.286-.3.669-.69.838-.847s.558-.547.862-.865c.776-.8,1.283-1.31,2.573-2.568.624-.609,1.286-1.26,1.48-1.456.478-.482,1.191-1.174,1.542-1.5.16-.146.791-.755,1.4-1.346s1.2-1.15,1.305-1.237.635-.585,1.165-1.1a5.837,5.837,0,0,1,1.031-.889c.035.029.194,1.173.354,2.541.636,5.455,1.394,10.884,2,14.323.054.31.116.678.137.829.362,2.513,1.013,6.03,1.366,7.381.122.47.237.925.256,1.011s.119.493.226.909.22.936.255,1.165a6.163,6.163,0,0,0,.229.9,8.123,8.123,0,0,1,.341,1.444c.026.176,1.1,3.544,1.313,4.127a28.854,28.854,0,0,0,1.2,2.9,7.061,7.061,0,0,0,1.146,1.632V44.766c-.143-.586-.312-1.251-.418-1.649-.238-.886-.482-2.062-.7-3.373-.279-1.653-.731-4.743-.886-6.068-.476-4.03-.684-5.53-.974-6.978-.175-.877-.38-1.94-.458-2.374s-.231-1.148-.336-1.584a11.387,11.387,0,0,1-.454-2.086.172.172,0,0,0-.065-.175,14.719,14.719,0,0,1-.588-2.121c-.018-.092-.13-.526-.25-.981s-.244-.937-.276-1.091a.96.96,0,0,0-.11-.317,1.245,1.245,0,0,1-.1-.417c-.05-.4.35.491,1.351,3.025A96.258,96.258,0,0,1,96.12,32.708c.054.3.107.645.16,1v-3.26c-.164-.737-.362-1.53-.663-2.678-.063-.243-.58-1.958-1.152-3.815a63.384,63.384,0,0,0-2.576-7.3c-.912-2.172-1.007-2.592-.231-1.016.253.515.487.957.517.981.095.078,1.54,3.3,1.952,4.353.344.877,1.59,4.632,1.665,5.012.017.084.225.928.469,1.89l.018.074V25.593a50.491,50.491,0,0,0-4.1-10.258c-.342-.633-.773-1.436-.966-1.8s-.546-1-.782-1.408c-1.225-2.106-1.865-3.189-2.02-3.421-.188-.28-.338-.1,1.765-2.091L91.5,5.36c.125-.119.72-.683,1.31-1.244s1.176-1.1,1.293-1.194.427-.387.693-.66.6-.6.764-.739.407-.363.564-.511L96.279.87V0c-2.033,1.91-3.948,3.721-4.615,4.371-.222.216-.487.464-.594.555-.2.169-.7.639-1.432,1.343C88.309,7.541,88.342,7.52,88,7.3A33.419,33.419,0,0,0,80.69,4.983,84.706,84.706,0,0,0,68.278,3.6c-.178,0-.957-.023-1.738-.056-1.959-.083-9.523.026-10.839.155-.1.011-.65.03-1.225.045-1.479.039-7.37.621-8.835.873q-5.037.868-5.774,1.643c-.329.344-.356.425-.21.621a12.248,12.248,0,0,0,2.6,1.406,9.381,9.381,0,0,1,1.011.425,56.406,56.406,0,0,0,11.14,3.227,74.546,74.546,0,0,0,8.067.936c.234,0,.6.009.847.026a51.629,51.629,0,0,0,11.146-.818c.662-.121,1.26-.223,1.311-.228s.621-.122,1.257-.264,1.2-.258,1.254-.259A59.517,59.517,0,0,0,86.258,8.87c.5-.208.938-.383.972-.389.087-.012-.351.417-1.126,1.1-.306.271-.6.552-.668.635s-.428.439-.8.793-.9.865-1.173,1.13-.561.538-.645.6-.408.371-.727.692-.867.855-1.215,1.183-1.213,1.176-1.92,1.884L76.88,18.578c-.44.44-1.2,1.221-1.708,1.744s-1.146,1.189-1.435,1.485c-1.115,1.146-2.463,2.565-3.943,4.158A8.6,8.6,0,0,1,68.4,27.3a.219.219,0,0,0-.223.086.3.3,0,0,1-.319.047,2.025,2.025,0,0,0-.436-.1c-.122-.011-.873-.118-1.672-.241a39.235,39.235,0,0,0-4.823-.425c-1.73-.083-7.5-.136-8.124-.072-.229.023-1.5.056-2.843.074s-2.472.044-2.528.054-.574.023-1.142.027-1.087.017-1.139.024-.357.018-.665.021c-.543.006-1.893.062-3.785.158-1.351.068-6.719.627-7.889.821l-1.771.291a16.238,16.238,0,0,0-5.565,1.872,41.587,41.587,0,0,0-3.729,2.427,9.741,9.741,0,0,1-.892.711c-1.037.761-1.225,1.013-1.085,1.447a1.693,1.693,0,0,0,1.29.873c.185.039.806.21,1.372.378a13.066,13.066,0,0,0,1.577.377,2.724,2.724,0,0,1,.612.121c.368.3,8.312,1.01,10.273.921.181-.008.847-.02,1.461-.024s1.468-.027,1.873-.047c1.3-.062,6.665-.662,7.655-.855.515-.1,1.022-.194,1.12-.208a68.489,68.489,0,0,0,8.757-2.324c1.432-.535,2.782-1.06,3.589-1.4l2.091-.871c1.506-.628,5.421-2.449,5.516-2.568a.284.284,0,0,1,.241-.071c.1.012.106.041.021.071-.624.222-11.022,13.111-15.143,18.773-.936,1.286-.96,1.308-1.623,1.6a34.541,34.541,0,0,1-6.382,1.684c-.968.178-2.014.389-2.928.589-.372.081-.754.155-.861.166s-.722.14-1.355.283-1.234.277-1.316.294c-2.91.588-10.171,2.33-10.279,2.466a.858.858,0,0,1-.383.133c-.173.027-.888.234-1.59.46s-1.451.461-1.667.526a1.619,1.619,0,0,0-.442.178,3.4,3.4,0,0,1-.648.246c-.329.1-1.076.378-1.653.613s-1.237.5-1.46.58-.683.286-1.026.451-1.335.635-2.217,1.051a45.017,45.017,0,0,0-7.07,4.068c-.112.095-.461.359-.782.588a60.254,60.254,0,0,0-4.862,4.145A24.624,24.624,0,0,1,.831,70.2c-.763.573-.918.785-.791,1.084C.232,71.741.6,71.907,1.319,71.865Zm4.3,48.985c.265-.763.63-1.822.818-2.38a14.588,14.588,0,0,0,.442-1.563,2.8,2.8,0,0,1,.167-.642,16.387,16.387,0,0,0,.428-1.613c.2-.846.377-1.551.4-1.577s.211-.758.422-1.625.606-2.368.877-3.337.591-2.148.711-2.626.479-1.555.794-2.4a23.007,23.007,0,0,1,1.017-2.577c.075-.14.4-.757.728-1.376.856-1.625,1.515-2.84,1.81-3.337.142-.237.327-.556.41-.705.235-.421,1.162-1.911,1.59-2.555a69.23,69.23,0,0,1,7.385-8.753c.182-.17.481-.451.68-.639s.84-.748,1.427-1.247,1.177-1,1.305-1.117c.434-.381,4.431-3.376,4.52-3.387a23.873,23.873,0,0,1-1.8,1.988c-.258.212-1.525,1.4-2.059,1.932-.216.216-.705.693-1.075,1.051a29.936,29.936,0,0,0-5.545,6.965c-.547.99-2.283,4.718-2.485,5.336-.059.181-.122.312-.143.3a1.968,1.968,0,0,0-.262.55c-.122.316-.377.93-.558,1.347-.779,1.792-1.126,2.609-1.494,3.518-.214.531-.927,2.175-1.586,3.655-1.335,3.005-1.23,2.776-1.769,3.859-.223.445-.425.876-.455.965s-.407.868-.833,1.727c-1.363,2.739-1.56,3.15-1.973,4.121A25.981,25.981,0,0,1,6.1,120.924l-.957,1.3Zm-.716,2.743c.212-.336.861-1.233,1.442-2a27.974,27.974,0,0,0,3.893-7.019c.237-.574,1.007-2.157,1.456-2.983.259-.481,1.329-2.734,2.389-5.033.927-2.009,1.274-2.79,2.039-4.6.137-.324.442-1.016.674-1.53a5.531,5.531,0,0,0,.408-1.1.639.639,0,0,1,.14-.353,4.519,4.519,0,0,0,.4-.794c3.75-9.131,5.378-11.726,10.231-16.311.731-.69,1.569-1.512,1.875-1.837.9-.954,2.351-2.421,3-3.021.588-.546,1.129-1.084,2.353-2.335l.615-.63-.368.907c-.836,2.066-1.488,3.732-1.756,4.493-.157.44-.621,1.73-1.025,2.852s-.836,2.326-.954,2.666c-.855,2.479-3.032,7.7-4.345,10.416-.335.69-.758,1.574-.939,1.953-.279.592-1.121,2.142-1.961,3.611-.119.208-.259.467-.3.562s-.3.509-.57.9-.574.871-.677,1.046A105.382,105.382,0,0,1,11.85,117.157c-.306.315-.794.835-1.069,1.139s-.743.8-1.035,1.091c-.891.9-2.158,2.145-2.378,2.345-.118.106-.79.748-1.494,1.429A7.824,7.824,0,0,1,4.558,124.3,2.233,2.233,0,0,1,4.908,123.593ZM35.669,77.843c-.045.274-.2,1.2-.336,2.06-.365,2.241-.408,2.473-1.171,6.079-.693,3.28-.877,4.041-1.676,6.95a39.282,39.282,0,0,1-1.341,4.128c-.191.5-.452,1.18-.57,1.491a3.891,3.891,0,0,1-.371.76.556.556,0,0,0-.136.309.514.514,0,0,1-.057.259c-.039.075-.252.5-.467.932A46.778,46.778,0,0,1,25.25,107.7a57.759,57.759,0,0,1-4.8,5.358,8.659,8.659,0,0,0-.648.6,15.651,15.651,0,0,1-1.476,1.369c-.3.246-.705.6-.907.79-.568.531-3.31,2.811-4,3.323-.342.255-.7.532-.812.623-.683.564-3.572,2.645-5.443,3.922a32.979,32.979,0,0,1-2.95,1.864,1.828,1.828,0,0,1,.389-.445c.371-.36,1.769-1.694,2.889-2.755.2-.188.473-.437.6-.547s.455-.424.722-.7.588-.586.719-.7.579-.576.99-1.02.829-.873.916-.944.612-.633,1.162-1.24,1.192-1.308,1.42-1.549c1.94-2.044,6.288-7.3,7.462-9.025.276-.4.716-1.045.99-1.439.574-.83,2.25-3.438,2.475-3.851l.7-1.274c.3-.549.571-1.049.6-1.112s.211-.416.405-.793c.431-.834,1.685-3.438,2.074-4.312.161-.362.437-.959.62-1.343.344-.717.583-1.311,1.857-4.579.945-2.422,1.155-3,2.791-7.666A39.643,39.643,0,0,1,36,75.4C36.028,75.42,35.842,76.794,35.669,77.843ZM88.3,10.005c.066.19.265.748.448,1.257.5,1.408,1.711,5.614,2.365,8.235.208.836.445,1.785.528,2.118.368,1.464.47,1.964,1.123,5.437.377,2,.418,2.265.628,4.07.314,2.684.876,6.917,1.049,7.9.087.5.175,1.013.194,1.155a29.983,29.983,0,0,0,.7,3.3c.422,1.664.705,2.914.82,3.623.087.532-.585-.71-1.135-2.1a9.364,9.364,0,0,0-.549-1.236.163.163,0,0,1-.056-.175,2.216,2.216,0,0,0-.173-.645c-.219-.577-.969-2.9-.984-3.042-.006-.045-.154-.669-.329-1.376a11.618,11.618,0,0,1-.291-1.394.242.242,0,0,0-.1-.2.529.529,0,0,1-.127-.353c0-.14-.264-1.361-.586-2.716s-.619-2.687-.66-2.963-.181-1.123-.314-1.884-.244-1.465-.25-1.566-.122-.858-.258-1.67c-.253-1.519-.371-2.256-.621-3.871-.078-.5-.225-1.448-.321-2.081S89.022,17.008,88.77,15s-.469-3.708-.479-3.762-.039-.436-.063-.836C88.2,9.856,88.216,9.753,88.3,10.005ZM42.735,6.294a55.186,55.186,0,0,1,6.418-.21c1.011.03,2.33.051,2.919.047,1.878-.015,6.73.178,8.992.356.2.017.686.048,1.064.069s2.229.175,4.122.341c4.712.411,5.349.461,6.853.534.719.033,1.65.084,2.072.112,1.239.083,5.3.229,7.078.258.918.014,1.8.027,1.97.032.543.009-6.522.621-7.619.66-.208.008-.9.051-1.527.1s-1.861.125-2.725.175l-1.759.1c-.1.006-.764.012-1.465.012s-1.323.012-1.376.024-.8,0-1.661-.018l-1.958-.048c-1.664-.033-2.609-.062-2.888-.084-.743-.06-2.449-.155-2.535-.14-.051.009-.79-.045-1.656-.122-2.048-.181-5.831-.5-6.216-.531a87.836,87.836,0,0,1-9.264-1.512A8.214,8.214,0,0,1,42.735,6.294ZM82.714,9.479c-1.2.344-2.54.711-2.718.746-.084.015-.552.133-1.051.262s-1.153.286-1.471.35-.885.185-1.254.268a58.278,58.278,0,0,1-12.786,1.159,4.631,4.631,0,0,0-.627-.015c-.051.012-.636-.024-1.29-.081a7.79,7.79,0,0,0-1.29-.053.187.187,0,0,1-.193-.027,1.715,1.715,0,0,0-.592-.1c-.271-.01-1.465-.158-2.653-.327-1.849-.264-2.743-.414-4.707-.794A53.059,53.059,0,0,1,43.77,8.276c-3.424-1.384-3.465-1.418-1.049-.927,1.046.212,2.074.4,2.293.416a3.577,3.577,0,0,1,.719.139,11.908,11.908,0,0,0,1.545.237c.675.069,1.316.148,1.429.173A15.632,15.632,0,0,0,50.6,8.54c.609.056,1.227.116,1.355.133.87.112,3.515.3,3.6.249a.164.164,0,0,1,.182.012A7.726,7.726,0,0,0,57,9.086c.647.047,1.653.125,2.231.172s1.093.077,1.144.065A4.331,4.331,0,0,1,61,9.34c.286.021.607.041.7.041.345,0,2.09.053,3.2.095,2.44.092,7.334-.023,9.91-.232,1.653-.134,1.94-.157,4.629-.353,1.248-.092,3.076-.234,4.065-.315s1.845-.133,1.9-.113A13.626,13.626,0,0,1,82.714,9.479Zm.743-2.3c-1.379-.027-2.544-.042-2.594-.032-.11.024-2.927-.056-3.666-.1-.262-.017-.717-.047-1.005-.068s-1.427-.081-2.526-.136-2.329-.125-2.73-.158-.818-.051-.924-.045-1.709-.13-3.551-.3S62.19,5.966,61.081,5.9s-2.176-.133-2.362-.149c-.695-.065-4.275-.237-4.41-.213s-3.161,0-3.852-.03c-.309-.014-.705-.024-.859-.021s-1.039,0-1.964,0-2.051.014-2.511.042c-1.042.062-1.073.045-.265-.146s7.676-.915,8.9-.942c.5-.011,1.13-.039,1.414-.062s.722-.039.965-.035.8-.015,1.239-.044,1.18-.054,1.658-.062S60.4,4.205,61,4.18c1.608-.068,6.347.009,8.633.142l3.015.173a8.062,8.062,0,0,1,1.09.1,3.4,3.4,0,0,0,.687.092c1.308.1,4.882.606,5.728.815a1.127,1.127,0,0,0,.555.048.1.1,0,0,1,.152,0,11.166,11.166,0,0,0,1.343.383c.686.17,1.694.469,2.231.662a8.154,8.154,0,0,0,1.176.356.37.37,0,0,1,.276.139A10.319,10.319,0,0,1,83.457,7.177ZM72.112,67.295c-.143,1.819-.28,3.8-.276,4.014a1.508,1.508,0,0,1-.072.4c-.134.407-.25-.339-.6-3.819-.416-4.177-.482-5.12-.573-8.144-.041-1.343-.09-2.9-.112-3.443s-.045-1.357-.056-1.813c-.017-.722-.252-4.091-.425-6.089-.035-.4-.112-1.507-.172-2.47s-.151-2.289-.2-2.95-.1-1.569-.122-2.027-.059-1.274-.092-1.833c-.157-2.734-.152-2.776.139-1.242.167.886.455,2.446.529,2.873.032.187.124.693.2,1.123s.163.951.182,1.161a10.056,10.056,0,0,0,.178,1c.078.342.188.956.247,1.373s.2,1.268.316,1.88.276,1.586.353,2.137.2,1.412.283,1.913.163,1.242.188,1.652.066,1,.094,1.295c.048.562.219,4.184.228,4.894,0,.222.015.743.027,1.164C72.412,61.391,72.25,65.562,72.112,67.295ZM70.1,33.373a4.547,4.547,0,0,0,.291.7,1.7,1.7,0,0,1,.169.433c.063.217.231.678.377,1.042a63.386,63.386,0,0,1,3.807,18.2,69.62,69.62,0,0,1-1,14.053,42.233,42.233,0,0,1-1.277,4.164,8.939,8.939,0,0,1,.072-1.542c.077-.9.161-2.044.188-2.561s.092-1.647.146-2.519a79.814,79.814,0,0,0,.077-8.3c-.042-.734-.08-1.477-.086-1.668A90.37,90.37,0,0,0,71.525,45.3c-.145-.8-.3-1.635-.336-1.866-.329-1.875-.558-3.153-.726-4.042-.106-.565-.205-1.164-.216-1.313-.018-.27-.657-3.884-1.078-6.1a11.181,11.181,0,0,1-.2-1.227A22.392,22.392,0,0,1,70.1,33.373Zm-1.742-.963.087-.645.057.785c.032.43.075,1.257.1,1.824s.045,1.121.054,1.224.024.591.033,1.087c.024,1.25.2,4.5.378,7.1.238,3.408.27,3.866.312,4.489.021.326.093,1.257.161,2.057s.152,2.128.19,2.951.078,1.611.087,1.762c.071,1.022.1,1.878.136,4.1a96.076,96.076,0,0,0,.7,10.214c.286,2.7.262,2.712-.761.526a18.891,18.891,0,0,1-.983-2.648,49.242,49.242,0,0,1-.891-7.8c-.015-.79-.042-2.071-.06-2.837-.036-1.586-.036-1.843,0-6.963.015-2.03.021-3.724.012-3.777s-.008-.449,0-.885a9.615,9.615,0,0,0-.02-.975,7.5,7.5,0,0,1-.014-.888c.009-.389.01-.745,0-.8s-.018-.708-.024-1.461S67.9,39.456,67.9,39.4s0-.369.009-.708.024-.722.026-.856C67.94,36.682,68.162,33.883,68.359,32.41Zm-46.485,1a29.489,29.489,0,0,1,7.176-2.567c.163-.036.381-.078.487-.095s.675-.14,1.262-.276a26.787,26.787,0,0,1,5.3-.714,29.8,29.8,0,0,1,3.1-.081c.523.014.984.017,1.037.009s.689.006,1.415.032c1.794.062,2.562.08,2.665.066.053-.008.559,0,1.111.014s1.058.021,1.109.014.6-.011,1.209-.006,1.314,0,1.554-.018.613-.026.82-.026c2.327,0,6.237-.249,11.419-.72,1.3-.119,2.424-.217,2.509-.222.2-.008-2.378.455-2.62.47-.907.054-7.345,1.164-9.6,1.655-.52.113-1.24.255-1.623.32s-1.1.19-1.625.285-1.023.185-1.129.2c-.68.106-1.931.312-2.473.409-.357.065-1.061.179-1.569.256s-1.626.256-2.487.4c-1.754.289-6.071.748-7.284.773-.443.011-2.448.051-4.446.092-6.321.127-7.414.155-7.749.2C20.928,33.944,20.987,33.881,21.875,33.411ZM59.3,31.643c-.666.268-1.221.5-1.237.523-.047.059-3.86,1.436-4.6,1.662s-3.446.936-3.586.94c-.051,0-.363.074-.692.158a71.042,71.042,0,0,1-10.416,1.518,79.56,79.56,0,0,1-9.7-.178,53.463,53.463,0,0,1-7.473-1.35c-.748-.205-.669-.353.214-.4.493-.026,1.2-.047,1.577-.047s1.378-.026,2.21-.056c2.306-.083,2.785-.095,3.538-.1a82.061,82.061,0,0,0,15.386-1.427c1.219-.2,3.018-.5,3.337-.562,1.637-.294,2.287-.418,3.021-.577.475-.1,1.141-.234,1.456-.286,1.032-.172,2.945-.516,3.53-.636.689-.143,3.351-.583,4.537-.752.466-.066,1.138-.175,1.486-.24s.944-.16,1.314-.211a2.546,2.546,0,0,0,.74-.17c.036-.047.11-.042.173.011A34.459,34.459,0,0,1,59.3,31.643Zm5.12-3.551c-1.029.143-2.179.274-2.553.291s-1.485.1-2.488.194a138.365,138.365,0,0,1-15.033.556c-2.5-.051-6.385-.1-6.484-.083-.051.009-.52.02-1.055.021a44.594,44.594,0,0,0-10.991,1.962c-.841.265-1.542.475-1.555.464a9.139,9.139,0,0,1,.858-.541,14.165,14.165,0,0,1,5.654-2.121c1.694-.354,8.091-1.1,10.207-1.2.726-.03,1.4-.062,1.5-.068s.817-.032,1.583-.054,1.589-.05,1.831-.059,1.552-.036,2.927-.059,2.608-.056,2.76-.077.662-.036,1.147-.033.915,0,.968-.011c.253-.039,5.837-.009,6.9.036.324.015.68.026.79.023.585-.006,3.959.292,4.451.395C66.186,27.807,65.851,27.891,64.421,28.092ZM51.246,65.15c0-.047.054-.779.133-1.644s.143-1.669.146-1.8.032-.835.065-1.571.051-1.447.038-1.592-.023-.4-.02-.565c.02-1.8.01-2.576-.042-3.28a31.738,31.738,0,0,1-.071-3.486,35.306,35.306,0,0,1,1.129,5.185c.292,2.107,1.467,12.962,1.6,14.772a40.437,40.437,0,0,1-.039,5.806c-.068,1.011-.116,1.937-.107,2.062a.543.543,0,0,1-.038.289,17.736,17.736,0,0,0-.125,1.8c-.041.957-.087,1.95-.106,2.223-.035.506.306,1,.428.62a18.88,18.88,0,0,0,.181-2.787.184.184,0,0,1,.03-.188,2.03,2.03,0,0,0,.093-.672c.008-.317.1-1.545.2-2.743s.175-2.213.164-2.267a7.1,7.1,0,0,1,.009-.717c.014-.339.021-.657.014-.705s-.024-.568-.038-1.143c-.042-1.974-1.13-12.977-1.64-16.59-.3-2.166.044-1.221,1.2,3.263.683,2.642,1.369,5.81,1.555,7.182.839,6.183.873,8.851.164,13.1a54.8,54.8,0,0,1-2.286,8.834c-.184.428-.2.262-.086-.678.1-.831.014-1.143-.3-1.034-.078.027-.179.283-.219.556a3.015,3.015,0,0,1-.11.55,2.629,2.629,0,0,1-.323-.957,3.17,3.17,0,0,0-.208-.63,2.561,2.561,0,0,1-.179-.5,1.469,1.469,0,0,0-.089-.333c-.14-.374-1.014-3.718-1.088-4.16-.038-.228-.125-.674-.2-1.017A25.687,25.687,0,0,1,50.6,76.09c0-.613-.018-1.244-.029-1.4a4.877,4.877,0,0,1,.044-.779,5.387,5.387,0,0,0,.041-.843c-.012-.188.018-.984.068-1.782s.092-1.531.092-1.641a.617.617,0,0,1,.038-.244C50.9,69.354,51.267,65.331,51.246,65.15Zm-.333-11.523c.017.7.051,1.554.075,1.881a12.291,12.291,0,0,1,.032,1.718c-.012.234-.012.544,0,.692s0,.639-.026,1.106-.041.951-.035,1.093c.038.785-.3,5.153-.657,8.582-.106,1-.315,4.912-.335,6.237a22.506,22.506,0,0,0,.148,3.286c.069.5.14,1,.154,1.109.026.185.6,2.977.7,3.4.03.128.119.512.2.85s.273,1,.436,1.479a25.293,25.293,0,0,1,.889,3.022c-.023.187-.311-.326-.888-1.59-1.5-3.278-2.737-9.951-2.7-14.587,0-.212-.006-.5-.018-.656s-.008-.555.008-.892c.026-.567.021-1.858-.015-3.608-.008-.387-.006-.9,0-1.126.015-.362.026-2.311.018-3.262a37.287,37.287,0,0,1,.8-5.681c.308-1.411,1.039-4.142,1.144-4.271A6.425,6.425,0,0,1,50.913,53.627Zm-3.984-.455c-.259.264-.568.561-.677.65s-.365.323-.564.514c-.506.488-3.011,2.638-3.219,2.761a3.267,3.267,0,0,0-.369.265c-.353.3-2.047,1.515-3.4,2.448a105.551,105.551,0,0,1-9.369,5.717c-.847.458-4.63,2.16-5.161,2.321a7.6,7.6,0,0,0-.79.3,4.292,4.292,0,0,1-.529.212c-.083.02-.912.291-1.831.6-1.534.512-3.608,1.129-3.842,1.141-.054,0-.436.08-.865.175a70.372,70.372,0,0,1-8.676,1.106c-.684.038-1.619.087-2.08.115s-.847.041-.861.036.968-.315,2.17-.686S9.3,70.1,9.583,70s.821-.267,1.183-.386A44.8,44.8,0,0,0,16.235,67.5c.781-.344,1.965-.859,2.641-1.148s2.39-1.055,3.827-1.709,3.479-1.543,4.561-1.99c4.98-2.054,9.34-4.027,11.642-5.266.407-.219.916-.487,1.12-.588.612-.3,6.1-3.349,7.042-3.908C47.364,52.713,47.346,52.749,46.93,53.172Zm-4.422,1.563c-1.085.555-1.272.657-1.946,1.063a4.585,4.585,0,0,1-.843.433.472.472,0,0,0-.259.14c-.2.247-5.375,2.742-7.737,3.729-.61.255-1.886.8-2.843,1.215s-1.8.77-1.889.791-1.524.648-3.213,1.4-4.012,1.785-5.18,2.3-2.668,1.174-3.332,1.465-1.34.577-1.492.632-.739.271-1.29.481-1.843.651-2.858.974-1.95.629-2.075.677a32.551,32.551,0,0,1-3.3.9c-1.649.374-3.2.491-2.485.187.22-.094,1.923-1.3,2.668-1.884a53.238,53.238,0,0,1,10.111-6.076c2.089-.948,3.031-1.355,3.269-1.412.1-.023.5-.175.9-.339a67.633,67.633,0,0,1,6.594-2.152c.746-.22,1.458-.439,1.586-.485.288-.109,1.59-.5,4.636-1.39,3.114-.912,5.244-1.563,5.391-1.646a.543.543,0,0,1,.228-.068c.757.011,7.812-2.671,9.8-3.726.285-.151.515-.241.52-.205A34.469,34.469,0,0,1,42.507,54.735ZM1.788,70.193c.663-.528,1.561-1.329,2.384-2.127A45.351,45.351,0,0,1,14.666,60.44a10.534,10.534,0,0,0,.945-.487c.107-.133,4.96-2.284,5.943-2.633.262-.093.568-.216.668-.267a7.116,7.116,0,0,1,.784-.282,4.3,4.3,0,0,0,.633-.228c.018-.023.856-.3,1.861-.613s1.851-.6,1.883-.644a.152.152,0,0,1,.16-.038,16.342,16.342,0,0,0,1.822-.425c.951-.252,1.785-.472,1.869-.493s.781-.176,1.564-.351,1.6-.365,1.825-.43.751-.178,1.165-.255c.835-.155.858-.16,2.409-.521,1.408-.329,1.72-.393,6.644-1.366.348-.069.846-.175,1.1-.234s.607-.137.778-.17l.711-.142c.618-.125-2.252,1.334-4.134,2.1-1.751.713-3.908,1.444-6.84,2.32-.992.3-2.546.767-3.449,1.046s-1.688.509-1.741.512-.427.106-.824.226c-1.5.449-2.767.824-3.4,1A88.978,88.978,0,0,0,15.98,61.852a8.741,8.741,0,0,1-.969.407,56.6,56.6,0,0,0-7.533,4.074c-.357.246-.692.473-.754.512s-.85.63-1.748,1.307C2.333,70.147-.152,71.738,1.788,70.193Z" transform="translate(118.666 124.269) rotate(169)" fill="#a5654e"/>
</svg>
